<?xml version="1.0" encoding="UTF-8"?>
<svg version="1.1" viewBox="0 0 2048 1415" width="149" height="103" xmlns="http://www.w3.org/2000/svg">
<path transform="translate(1149,658)" d="m0 0 7 1 9 6 16 13 5 4 16 8 11 7 15 9 6 3h14l12-3 15-9 11-8 13-6 5-2h13l9 4 5 5 5 8 4 13 9 15 8 10 14 15 5 5 7 10 5 7v2l5 2 5-1 10-4 9 6 14 11 14 14 11 8 17 12 13 10 11 9 13 11 10 9 8 7 16 15 27 27 8 7 36 36 8 7 35 35 2 1v2l3 1v2l4 2v2l4 2 81 81 7 8 10 10 7 8 7 7 7 8 14 15 7 8 14 15 12 14 10 12 10 14 2 4-85-1h-37l-4 1-10-5-15-15-7-8-9-10-9-11-11-12-9-11-10-11-14-16-12-9-9-1-1 1-23-1-47-3-14-2-10-6-10-9-9-9-4-5-5-5-14-13-12-6-40-4-28-7-6-4-10-9-19-19-8-7-11-10-13-10-17-11-11-4-6-2 3 6 5 6 4 8 18 12 17 14 9 9 10 15 1 6-3 4-8-1-14-5-10-6-10-8-7-7-11-15-6-14-2-10-4-2-2-4 2-2-4 2-3 1-1 6-2 80v71l1 61 25 4 14 4 14 8 3 2-1 2-7-2-11-1-46-1-24-3-17-1 2-4 6-11 3-5 2-23 7-118 3-50 1-23 3-7 6-3 18-5 3 1 2 3-1-4 5-2 6 3 1-3 14-3 6-9v-6l-3-3-10-4-25-6-29-3h-44l-52 5-74 10-98 14-91 14-29 4h-10l-1-1v-6l4-6 9-7 3-5v-5l-5-3-64-12-15-4 2 6-1 19v188l1 39v23l-3 8-25-6-30-8-46-11-14-4-6-4-2-2-1-4v-64l2-12 2-2 20-3 25-3 23-2 14-3 2-1 1-4 1-85h-22l-5 2-12 2-6 2h-9l-4-4-1-6 6-3 7-2 4-1 2 1-3-11-5-2-17-2h-10l-42-5-9-2-1 24-1 65v67l1 59v26l-1 1h-13l-16-2h-67l-14-2-5-4-1-6v-76l4-4 23-5 40-6 14-3 1-44v-24l1-12-14 3-82 12-104 15-7 2 1 2 1 143-1 5-5-1h-17l-9-2-5-1h-7l-4-2v-7l5-4 4-2 8-1 1-1 1-7v-25l1-18-3-1v-3l4 1v-14l1-2-3 1-3 5-3 3h3l-3 9-3 4 1 4-9 3-7 4-9 7-3 3h-2l-2 4-6 5-9 12-10 14-1 2-2-1 6-11 10-13 7-7 6-10 7-9v-2l-4 1-1-4-11 4-11 10-7 8-22 24-6 7-3 6-3 3 5-4h2l2-6h2l2-4 6-7h2l2-4 3-3h2l2-4h2l2-4 10-11h2l2-4 8-7 2 1-2 3-5 3-9 10-5 6-4 4h-2l-2 4-4 5-7 9-5 5-5 6-1 7-9-1-3-1-27-1-48-1-1-5 7-9 13-16 8-8 7-8 13-16 20-28 42-60 20-30 10-16 16-25 9-16 8-18 10-14 12-11 20-15 16-13 8-7 4-10 3-11 4-7 9-10 7-7 7-8 9-10 7-8 8-8 15-8 14-12 9-6h6l10 6 12 8 9 7 10 4 14 5 24 15 10 3 5-1 16-8 13-10 9-7 12-6 9-3h9l10 2 6 5 7 12 5 6 3 1 3-1 3 2 9-8 9-13 10-14 6-10 8-12 9-10 5-5 10-9 17-25 4-5 11-7 9-4 14-4 12 1 8 5 10 15 10 19 14 14 7 6 7 11 3 13 3 6h10l7-4 10-9 14-10 21-12 3-1h11l6 4 6 9 6 11 5 8 2 11 7 6 11-1 5-3 4-2 2-4 4-5 9-15 4-8 4-9 8-11 9-8 10-8 6-7 5-7 10-7 13-1 9-6 12-11zm140 300 1 3zm-577 18m-362 188 1 4 1-3zm-89 11m-1 1m304 0 1 2 14 3-3-3-8-2z" fill="#99816A"/>
<path transform="translate(965,1053)" d="m0 0h23l2 1 1 4 1 24 1 72v42h-11l-68-7-54-7-26-5-12-4-3-4-1-4-1-18v-80l2-2 33-3 78-6z" fill="#99816A"/>
<path transform="translate(1284,948)" d="m0 0 3 1 3 4-1 8 9 1v2h-8l-3 3h-2l-1 6-2 80v71l1 61 25 4 14 4 14 8 3 2-1 2-7-2-11-1-46-1-24-3-17-1 2-4 6-11 3-5 2-23 7-118 3-50 1-23 3-7 6-3z" fill="#99816A"/>
<path transform="translate(1518,1112)" d="m0 0 9 1 6 1h31l15 1 15 2 10 13 8 11 12 14 9 10 9 11 8 9 9 12 6 11h-23l-26-3-25-5-10-1-9-5-9-10-15-20-14-19-14-21-3-8z" fill="#99816A"/>
<path transform="translate(1403,1050)" d="m0 0h17l20 2 16 8 7 6 3 5-1 6-2 7-12-1-6-2-18-3-15-3-6-5-6-11 1-6z" fill="#99816A"/>
<path transform="translate(493,776)" d="m0 0 2 1-9 10-30 32-9 11-11 12-9 12-8 9-7 9-11 12-8 10-10 11-13 17-13 18-22 33-2 1 2-6 10-15 10-14 12-17 10-13 9-11 9-10 9-11 11-12 22-28 24-28 13-13 7-8z" fill="#99816A"/>
<path transform="translate(281,1050)" d="m0 0 1 2-8 12-13 19-20 30-14 20-12 17-8 10-10 10-4 1 6-8 9-9 10-13 11-16 13-18 22-33 13-18z" fill="#99816A"/>
<path transform="translate(312,1118)" d="m0 0 2 1-2 3-5 3-9 10-5 6-4 4h-2l-2 4-4 5-7 9-5 5-5 6-1 7-4-1h3l-2-3-2-2 3-3h2l2-6h2l2-4 6-7h2l2-4 3-3h2l2-4h2l2-4 10-11h2l2-4z" fill="#99816A"/>
<path transform="translate(1130,677)" d="m0 0 2 1-11 9-9 7-10 8-11 10-9 11-10 13-7 10v-3l10-15 8-10 9-10 3-4h2v-2l8-7 13-10z" fill="#99816A"/>
</svg>
